#189016-chinese-new-year_1789_10.obj

v -0.3056252 -0.304194 1.007968E-06
v -0.1935663 -0.3853214 1.03937E-06
v 9.536743E-07 -0.4312081 1.068512E-06
v -0.4312105 5.960467E-07 9.159766E-07
v -0.3860462 -0.192119 9.710894E-07
v 0.00449276 -0.4311848 1.068899E-06
v -0.3056273 0.3041985 8.459426E-07
v -0.3860481 0.1921216 8.687599E-07
v 0.3056273 -0.3041937 1.061405E-06
v 0.1935687 -0.3853211 1.073214E-06
v 9.536743E-07 0.4312146 8.38835E-07
v -0.1935685 0.3853266 8.341333E-07
v 0.4312124 9.536745E-07 9.913718E-07
v 0.3860483 -0.1921186 1.038588E-06
v 0.3056288 0.3041986 8.993802E-07
v 0.1935701 0.3853269 8.67978E-07
v 0.3860497 0.1921219 9.362587E-07

vn 5.960464E-08 -5.960464E-08 -1
vn 5.960464E-08 -5.960464E-08 -1
vn 5.960464E-08 -5.960464E-08 -1
vn 5.960464E-08 -5.960464E-08 -1
vn 5.960464E-08 -5.960464E-08 -1
vn 5.960464E-08 -5.960464E-08 -1
vn 5.960464E-08 -5.960464E-08 -1
vn 5.960464E-08 -5.960464E-08 -1
vn 5.960464E-08 -5.960464E-08 -1
vn 5.960464E-08 -5.960464E-08 -1
vn 5.960464E-08 -5.960464E-08 -1
vn 5.960464E-08 -5.960464E-08 -1
vn 5.960464E-08 -5.960464E-08 -1
vn 5.960464E-08 -5.960464E-08 -1
vn 5.960464E-08 -5.960464E-08 -1
vn 5.960464E-08 -5.960464E-08 -1
vn 5.960464E-08 -5.960464E-08 -1

vt 0.7514648 0.2536621
vt 0.7817383 0.2768555
vt 0.8334961 0.2897949
vt 0.7177734 0.1669922
vt 0.7299805 0.2216797
vt 0.8344727 0.2897949
vt 0.7514648 0.0803833
vt 0.7299805 0.1123047
vt 0.9150391 0.2536621
vt 0.8852539 0.2768555
vt 0.8334961 0.04418945
vt 0.7817383 0.05728149
vt 0.9487305 0.1669922
vt 0.9365234 0.2216797
vt 0.9150391 0.0803833
vt 0.8852539 0.05728149
vt 0.9365234 0.1123047

g 189016-chinese-new-year_1789_10
usemtl 189016-chinese-new-year_1789_10
usemap 189016-chinese-new-year_1789_10
f 1/1/1 3/3/3 2/2/2
f 4/4/4 3/3/3 1/1/1
f 4/4/4 1/1/1 5/5/5
f 4/4/4 6/6/6 3/3/3
f 7/7/7 6/6/6 4/4/4
f 8/8/8 7/7/7 4/4/4
f 6/6/6 9/9/9 3/3/3
f 3/3/3 9/9/9 10/10/10
f 7/7/7 11/11/11 6/6/6
f 12/12/12 11/11/11 7/7/7
f 6/6/6 13/13/13 9/9/9
f 11/11/11 13/13/13 6/6/6
f 13/13/13 14/14/14 9/9/9
f 11/11/11 15/15/15 13/13/13
f 11/11/11 16/16/16 15/15/15
f 15/15/15 17/17/17 13/13/13
