#2019-chinese-couplets-spring-festival-new-year-decorations-wall_1775_5.obj

v -0.06763287 0.3451968 -1.872511E-07
v -0.0676326 -0.3451971 -3.014113E-07
v 0.06763286 -0.3451971 -2.299814E-07
v 0.06763259 0.3451968 -1.158212E-07

vn 5.960464E-08 -5.960464E-08 -1
vn 5.960464E-08 -5.960464E-08 -1
vn 5.960464E-08 -5.960464E-08 -1
vn 5.960464E-08 -5.960464E-08 -1

vt 0.1889648 0.02470398
vt 0.1889648 0.8256836
vt 0.3249512 0.8256836
vt 0.3249512 0.02470398

g 2019-chinese-couplets-spring-festival-new-year-decorations-wall_1775_5
usemtl 2019-chinese-couplets-spring-festival-new-year-decorations-wall_1775_5
usemap 2019-chinese-couplets-spring-festival-new-year-decorations-wall_1775_5
f 1/1/1 3/3/3 2/2/2
f 1/1/1 4/4/4 3/3/3
