#BezierCurve.022_1406_3.obj

v 0.05269814 -0.1632347 -0.2174508
v 0.04414368 -0.2207901 0.5132813
v 0.05366564 -0.1645948 0.513294
v 0.04317713 -0.2194228 -0.217069
v 0.05169153 -0.1343678 -1.01423
v -0.008979797 -0.240553 0.5133262
v 0.04228354 -0.1904768 -1.014251
v 0.05090475 -0.08276916 -2.04841
v -0.009963512 -0.2391331 -0.2170103
v -0.05267811 -0.2046267 0.5134166
v -0.05365372 -0.2032095 -0.2169267
v -0.01082611 -0.2104756 -1.009112
v -0.05465746 -0.1746654 -1.004185
v 0.04149866 -0.1387814 -2.04912
v 0.04969883 0.0008989573 -3.331051
v -0.01153612 -0.1584656 -2.0518
v -0.05546141 -0.1226097 -2.048853
v 0.04023361 -0.05502641 -3.332873
v 0.04891491 0.08282828 -4.212095
v -0.01307964 -0.07535988 -3.32182
v -0.05665827 -0.04090041 -3.304847
v 0.03908062 0.02694494 -4.21503
v 0.04794312 0.2020856 -4.939229
v 0.03538799 0.145009 -4.943354
v -0.01411295 0.009921134 -4.229679
v -0.05749655 0.04687291 -4.236746
v -0.01759052 0.1299749 -4.951496
v -0.05845451 0.1647863 -4.955513
v -0.04362774 -0.1486962 0.5134499
v -0.05267811 -0.2046267 0.5134166
v -0.05365372 -0.2032095 -0.2169267
v -0.04458761 -0.1472732 -0.2173022
v 0.009498119 -0.1283946 0.5133714
v -0.05465746 -0.1746654 -1.004185
v 0.00854969 -0.1270394 -0.2173664
v 0.05366564 -0.1645948 0.513294
v 0.05269814 -0.1632347 -0.2174508
v -0.04541588 -0.1184291 -1.009401
v -0.05546141 -0.1226097 -2.048853
v 0.007678986 -0.09826463 -1.013375
v 0.05169153 -0.1343678 -1.01423
v -0.04611492 -0.06642663 -2.050327
v -0.05665827 -0.04090041 -3.304847
v 0.006893635 -0.04646254 -2.051736
v 0.05090475 -0.08276916 -2.04841
v -0.04766321 0.01641041 -3.32276
v -0.05749655 0.04687291 -4.236746
v 0.005633831 0.03727221 -3.333794
v 0.04969883 0.0008989573 -3.331051
v -0.04870272 0.1013823 -4.229386
v -0.05845451 0.1647863 -4.955513
v -0.05219746 0.218288 -4.951389
v 0.004498005 0.1196402 -4.21535
v 0.04891491 0.08282828 -4.212095
v 0.0008301735 0.240553 -4.943247
v 0.04794312 0.2020856 -4.939229
v 0.009498119 -0.1283946 0.5133714
v 0.05366564 -0.1645948 0.513294
v 0.05468893 -0.1310312 1.391113
v 0.01048851 -0.09479517 1.391754
v -0.04362774 -0.1486962 0.5134499
v 0.05545807 -0.05241269 2.385925
v -0.04265547 -0.1153644 1.388181
v -0.05267811 -0.2046267 0.5134166
v -0.05166006 -0.1716504 1.381831
v 0.0114727 -0.01625073 2.387277
v 0.05669403 0.0367139 3.492433
v -0.04173136 -0.03621817 2.390144
v -0.05087042 -0.09217912 2.389593
v 0.01262903 0.07303697 3.495234
v 0.05745983 0.1027495 4.201127
v -0.04084539 0.05213124 3.486395
v -0.04964495 -0.004526317 3.471774
v 0.01336241 0.1391489 4.203666
v 0.05845499 0.1864218 4.940778
v 0.01127005 0.2246744 4.944516
v -0.04008055 0.1201423 4.214082
v -0.04883575 0.06534183 4.219127
v -0.04218245 0.2017726 4.951883
v -0.04784775 0.1485199 4.955513
v -0.008979797 -0.240553 0.5133262
v -0.05267811 -0.2046267 0.5134166
v -0.05166006 -0.1716504 1.381831
v -0.008008957 -0.2071566 1.388186
v 0.04414368 -0.2207901 0.5132813
v -0.05087042 -0.09217912 2.389593
v 0.04514408 -0.1872244 1.391665
v 0.05366564 -0.1645948 0.513294
v 0.05468893 -0.1310312 1.391113
v -0.007087708 -0.1282384 2.389925
v -0.04964495 -0.004526317 3.471774
v 0.04614258 -0.1084293 2.387152
v 0.05545807 -0.05241269 2.385925
v -0.006166935 -0.03943527 3.486471
v -0.04883575 0.06534183 4.219127
v 0.0473094 -0.01922089 3.495305
v 0.05669403 0.0367139 3.492433
v -0.005393028 0.02857089 4.213794
v -0.04784775 0.1485199 4.955513
v -0.007516861 0.1141922 4.951776
v 0.04805088 0.04682618 4.203331
v 0.05745983 0.1027495 4.201127
v 0.04598951 0.1291162 4.944409
v 0.05845499 0.1864218 4.940778

vn 0.9384766 0.3459473 0.005573273
vn 0.7680664 -0.6401367 0.01187134
vn 0.9384766 0.3449707 -0.007972717
vn 0.7685547 -0.6391602 -0.0136261
vn 0.9375 0.3481445 0.01437378
vn -0.1621094 -0.9868164 0.01972961
vn 0.7680664 -0.6401367 -0.02908325
vn 0.9379883 0.3466797 0.01919556
vn -0.1630859 -0.9863281 -0.01921082
vn -0.9331055 -0.3588867 0.008354187
vn -0.934082 -0.3574219 -0.005970001
vn -0.1687012 -0.9848633 -0.04302979
vn -0.9345703 -0.3557129 -0.01470947
vn 0.7695313 -0.637207 -0.0378418
vn 0.9360352 0.3515625 0.02558899
vn -0.1622314 -0.9848633 -0.05743408
vn -0.9345703 -0.3549805 -0.01985168
vn 0.7705078 -0.6352539 -0.05065918
vn 0.9394531 0.340332 0.03936768
vn -0.1549072 -0.9848633 -0.07574463
vn -0.9355469 -0.3525391 -0.02565002
vn 0.7524414 -0.6533203 -0.08074951
vn 0.9194336 0.3886719 0.06140137
vn 0.753418 -0.6484375 -0.1091309
vn -0.1859131 -0.9750977 -0.1222534
vn -0.9316406 -0.3603516 -0.04544067
vn -0.2210693 -0.9624023 -0.1580811
vn -0.9482422 -0.3132324 -0.04901123
vn -0.777832 0.628418 -0.0115509
vn -0.9331055 -0.3588867 0.008354187
vn -0.934082 -0.3574219 -0.005970001
vn -0.7763672 0.6298828 0.0134201
vn 0.1624756 0.9863281 -0.02003479
vn -0.9345703 -0.3557129 -0.01470947
vn 0.1634521 0.9863281 0.01939392
vn 0.9384766 0.3449707 -0.007972717
vn 0.9384766 0.3459473 0.005573273
vn -0.7773438 0.628418 0.0282135
vn -0.9345703 -0.3549805 -0.01985168
vn 0.1622314 0.9858398 0.043396
vn 0.9375 0.3481445 0.01437378
vn -0.7744141 0.6313477 0.03747559
vn -0.9355469 -0.3525391 -0.02565002
vn 0.1655273 0.984375 0.05764771
vn 0.9379883 0.3466797 0.01919556
vn -0.7631836 0.6445313 0.04968262
vn -0.9316406 -0.3603516 -0.04544067
vn 0.1687012 0.9829102 0.07678223
vn 0.9360352 0.3515625 0.02558899
vn -0.7851563 0.6137695 0.08062744
vn -0.9482422 -0.3132324 -0.04901123
vn -0.7807617 0.6162109 0.1038208
vn 0.154541 0.9804688 0.1220093
vn 0.9394531 0.340332 0.03936768
vn 0.1002808 0.9819336 0.161499
vn 0.9194336 0.3886719 0.06140137
vn 0.1624756 0.9863281 -0.02003479
vn 0.9384766 0.3449707 -0.007972717
vn 0.9384766 0.3444824 -0.02124023
vn 0.1608887 0.9853516 -0.05999756
vn -0.777832 0.628418 -0.0115509
vn 0.9360352 0.3503418 -0.02885437
vn -0.7792969 0.6254883 -0.03631592
vn -0.9331055 -0.3588867 0.008354187
vn -0.9326172 -0.3596191 0.02223206
vn 0.1616211 0.9838867 -0.07867432
vn 0.934082 0.3552246 -0.03118896
vn -0.7724609 0.6333008 -0.04983521
vn -0.9345703 -0.3540039 0.0291748
vn 0.1638184 0.9829102 -0.0848999
vn 0.9379883 0.3447266 -0.03573608
vn -0.7602539 0.6474609 -0.05441284
vn -0.9360352 -0.3508301 0.03091431
vn 0.1567383 0.9824219 -0.1019287
vn 0.925293 0.3774414 -0.04266357
vn 0.1078491 0.987793 -0.1126099
vn -0.7788086 0.6235352 -0.06500244
vn -0.9326172 -0.359375 0.03805542
vn -0.7861328 0.6137695 -0.07037354
vn -0.9433594 -0.3293457 0.03720093
vn -0.1621094 -0.9868164 0.01972961
vn -0.9331055 -0.3588867 0.008354187
vn -0.9326172 -0.3596191 0.02223206
vn -0.1651611 -0.984375 0.05899048
vn 0.7680664 -0.6401367 0.01187134
vn -0.9345703 -0.3540039 0.0291748
vn 0.7666016 -0.640625 0.03811646
vn 0.9384766 0.3449707 -0.007972717
vn 0.9384766 0.3444824 -0.02124023
vn -0.1634521 -0.9833984 0.07873535
vn -0.9360352 -0.3508301 0.03091431
vn 0.7700195 -0.6357422 0.05004883
vn 0.9360352 0.3503418 -0.02885437
vn -0.1544189 -0.984375 0.08465576
vn -0.9326172 -0.359375 0.03805542
vn 0.7729492 -0.6323242 0.05374146
vn 0.934082 0.3552246 -0.03118896
vn -0.1783447 -0.9785156 0.1018066
vn -0.9433594 -0.3293457 0.03720093
vn -0.2203369 -0.9692383 0.1106567
vn 0.7592773 -0.6474609 0.06652832
vn 0.9379883 0.3447266 -0.03573608
vn 0.7480469 -0.6591797 0.07562256
vn 0.925293 0.3774414 -0.04266357

vt 0.7773438 0.4733887
vt 0.7773438 0.4731445
vt 0.7773438 0.4733887
vt 0.7773438 0.4733887
vt 0.7788086 0.4731445
vt 0.7773438 0.4731445
vt 0.7788086 0.4731445
vt 0.7807617 0.4724121
vt 0.7773438 0.4731445
vt 0.7773438 0.4731445
vt 0.7773438 0.4731445
vt 0.7788086 0.4731445
vt 0.7788086 0.4729004
vt 0.7807617 0.4724121
vt 0.7836914 0.470459
vt 0.7807617 0.4724121
vt 0.7807617 0.472168
vt 0.7836914 0.470459
vt 0.7939453 0.4621582
vt 0.7836914 0.470459
vt 0.7836914 0.470459
vt 0.7939453 0.4621582
vt 0.8056641 0.4553223
vt 0.8056641 0.4553223
vt 0.7944336 0.4619141
vt 0.7944336 0.4616699
vt 0.8056641 0.4553223
vt 0.8056641 0.4550781
vt 0.7773438 0.4731445
vt 0.7773438 0.4731445
vt 0.7773438 0.4731445
vt 0.7773438 0.4731445
vt 0.7773438 0.4731445
vt 0.7788086 0.4729004
vt 0.7773438 0.4733887
vt 0.7773438 0.4733887
vt 0.7773438 0.4733887
vt 0.7788086 0.4731445
vt 0.7807617 0.472168
vt 0.7788086 0.4731445
vt 0.7788086 0.4731445
vt 0.7807617 0.4724121
vt 0.7836914 0.470459
vt 0.7807617 0.4724121
vt 0.7807617 0.4724121
vt 0.7836914 0.470459
vt 0.7944336 0.4616699
vt 0.7836914 0.470459
vt 0.7836914 0.470459
vt 0.7944336 0.4619141
vt 0.8056641 0.4550781
vt 0.8056641 0.4553223
vt 0.7939453 0.4621582
vt 0.7939453 0.4621582
vt 0.8056641 0.4553223
vt 0.8056641 0.4553223
vt 0.7773438 0.4731445
vt 0.7773438 0.4733887
vt 0.7788086 0.4729004
vt 0.7788086 0.4729004
vt 0.7773438 0.4731445
vt 0.7807617 0.472168
vt 0.7788086 0.4729004
vt 0.7773438 0.4731445
vt 0.7788086 0.4726563
vt 0.7807617 0.472168
vt 0.7841797 0.4702148
vt 0.7807617 0.4719238
vt 0.7807617 0.4719238
vt 0.7841797 0.4702148
vt 0.7939453 0.4619141
vt 0.7841797 0.4699707
vt 0.7841797 0.4699707
vt 0.7939453 0.4619141
vt 0.8061523 0.4550781
vt 0.8061523 0.4550781
vt 0.7944336 0.4616699
vt 0.7944336 0.4614258
vt 0.8061523 0.454834
vt 0.8061523 0.454834
vt 0.7773438 0.4731445
vt 0.7773438 0.4731445
vt 0.7788086 0.4726563
vt 0.7788086 0.4729004
vt 0.7773438 0.4731445
vt 0.7807617 0.4719238
vt 0.7788086 0.4729004
vt 0.7773438 0.4733887
vt 0.7788086 0.4729004
vt 0.7807617 0.4719238
vt 0.7841797 0.4699707
vt 0.7807617 0.472168
vt 0.7807617 0.472168
vt 0.7841797 0.4699707
vt 0.7944336 0.4614258
vt 0.7841797 0.4702148
vt 0.7841797 0.4702148
vt 0.7944336 0.4616699
vt 0.8061523 0.454834
vt 0.8061523 0.454834
vt 0.7939453 0.4619141
vt 0.7939453 0.4619141
vt 0.8061523 0.4550781
vt 0.8061523 0.4550781

g BezierCurve.022_1406_3
usemtl BezierCurve.022_1406_3
usemap BezierCurve.022_1406_3
f 1/1/1 3/3/3 2/2/2
f 1/1/1 2/2/2 4/4/4
f 5/5/5 1/1/1 4/4/4
f 6/6/6 4/4/4 2/2/2
f 5/5/5 4/4/4 7/7/7
f 8/8/8 5/5/5 7/7/7
f 6/6/6 9/9/9 4/4/4
f 7/7/7 4/4/4 9/9/9
f 10/10/10 9/9/9 6/6/6
f 10/10/10 11/11/11 9/9/9
f 12/12/12 9/9/9 11/11/11
f 7/7/7 9/9/9 12/12/12
f 12/12/12 11/11/11 13/13/13
f 8/8/8 7/7/7 14/14/14
f 12/12/12 14/14/14 7/7/7
f 15/15/15 8/8/8 14/14/14
f 13/13/13 16/16/16 12/12/12
f 12/12/12 16/16/16 14/14/14
f 13/13/13 17/17/17 16/16/16
f 15/15/15 14/14/14 18/18/18
f 18/18/18 14/14/14 16/16/16
f 19/19/19 15/15/15 18/18/18
f 20/20/20 16/16/16 17/17/17
f 18/18/18 16/16/16 20/20/20
f 20/20/20 17/17/17 21/21/21
f 19/19/19 18/18/18 22/22/22
f 20/20/20 22/22/22 18/18/18
f 23/23/23 19/19/19 22/22/22
f 23/23/23 22/22/22 24/24/24
f 21/21/21 25/25/25 20/20/20
f 20/20/20 25/25/25 22/22/22
f 24/24/24 22/22/22 25/25/25
f 21/21/21 26/26/26 25/25/25
f 24/24/24 25/25/25 27/27/27
f 27/27/27 25/25/25 26/26/26
f 27/27/27 26/26/26 28/28/28
f 29/29/29 31/31/31 30/30/30
f 29/29/29 32/32/32 31/31/31
f 33/33/33 32/32/32 29/29/29
f 34/34/34 31/31/31 32/32/32
f 33/33/33 35/35/35 32/32/32
f 35/35/35 33/33/33 36/36/36
f 35/35/35 36/36/36 37/37/37
f 34/34/34 32/32/32 38/38/38
f 38/38/38 32/32/32 35/35/35
f 38/38/38 39/39/39 34/34/34
f 40/40/40 35/35/35 37/37/37
f 38/38/38 35/35/35 40/40/40
f 40/40/40 37/37/37 41/41/41
f 38/38/38 42/42/42 39/39/39
f 40/40/40 42/42/42 38/38/38
f 43/43/43 39/39/39 42/42/42
f 44/44/44 40/40/40 41/41/41
f 40/40/40 44/44/44 42/42/42
f 44/44/44 41/41/41 45/45/45
f 43/43/43 42/42/42 46/46/46
f 46/46/46 42/42/42 44/44/44
f 46/46/46 47/47/47 43/43/43
f 48/48/48 44/44/44 45/45/45
f 46/46/46 44/44/44 48/48/48
f 48/48/48 45/45/45 49/49/49
f 46/46/46 50/50/50 47/47/47
f 48/48/48 50/50/50 46/46/46
f 51/51/51 47/47/47 50/50/50
f 51/51/51 50/50/50 52/52/52
f 53/53/53 48/48/48 49/49/49
f 48/48/48 53/53/53 50/50/50
f 52/52/52 50/50/50 53/53/53
f 53/53/53 49/49/49 54/54/54
f 52/52/52 53/53/53 55/55/55
f 55/55/55 53/53/53 54/54/54
f 55/55/55 54/54/54 56/56/56
f 57/57/57 59/59/59 58/58/58
f 57/57/57 60/60/60 59/59/59
f 61/61/61 60/60/60 57/57/57
f 60/60/60 62/62/62 59/59/59
f 61/61/61 63/63/63 60/60/60
f 64/64/64 63/63/63 61/61/61
f 64/64/64 65/65/65 63/63/63
f 60/60/60 66/66/66 62/62/62
f 66/66/66 60/60/60 63/63/63
f 66/66/66 67/67/67 62/62/62
f 68/68/68 63/63/63 65/65/65
f 66/66/66 63/63/63 68/68/68
f 68/68/68 65/65/65 69/69/69
f 66/66/66 70/70/70 67/67/67
f 68/68/68 70/70/70 66/66/66
f 70/70/70 71/71/71 67/67/67
f 69/69/69 72/72/72 68/68/68
f 68/68/68 72/72/72 70/70/70
f 69/69/69 73/73/73 72/72/72
f 70/70/70 74/74/74 71/71/71
f 74/74/74 70/70/70 72/72/72
f 74/74/74 75/75/75 71/71/71
f 74/74/74 76/76/76 75/75/75
f 77/77/77 72/72/72 73/73/73
f 74/74/74 72/72/72 77/77/77
f 77/77/77 76/76/76 74/74/74
f 77/77/77 73/73/73 78/78/78
f 77/77/77 79/79/79 76/76/76
f 78/78/78 79/79/79 77/77/77
f 78/78/78 80/80/80 79/79/79
f 81/81/81 83/83/83 82/82/82
f 81/81/81 84/84/84 83/83/83
f 85/85/85 84/84/84 81/81/81
f 86/86/86 83/83/83 84/84/84
f 85/85/85 87/87/87 84/84/84
f 88/88/88 87/87/87 85/85/85
f 88/88/88 89/89/89 87/87/87
f 86/86/86 84/84/84 90/90/90
f 90/90/90 84/84/84 87/87/87
f 90/90/90 91/91/91 86/86/86
f 89/89/89 92/92/92 87/87/87
f 90/90/90 87/87/87 92/92/92
f 89/89/89 93/93/93 92/92/92
f 90/90/90 94/94/94 91/91/91
f 92/92/92 94/94/94 90/90/90
f 95/95/95 91/91/91 94/94/94
f 93/93/93 96/96/96 92/92/92
f 92/92/92 96/96/96 94/94/94
f 93/93/93 97/97/97 96/96/96
f 95/95/95 94/94/94 98/98/98
f 98/98/98 94/94/94 96/96/96
f 98/98/98 99/99/99 95/95/95
f 98/98/98 100/100/100 99/99/99
f 97/97/97 101/101/101 96/96/96
f 98/98/98 96/96/96 101/101/101
f 101/101/101 100/100/100 98/98/98
f 97/97/97 102/102/102 101/101/101
f 101/101/101 103/103/103 100/100/100
f 102/102/102 103/103/103 101/101/101
f 102/102/102 104/104/104 103/103/103
