#BezierCurve.021_1402_40.obj

v -0.3584005 -0.1601734 -0.05267477
v 0.350733 -0.2177289 -0.04412031
v 0.3507458 -0.1615335 -0.05364227
v -0.3584204 -0.2163615 -0.04315424
v -1.090338 -0.1313065 -0.05166864
v 0.350778 -0.2374917 0.009002686
v -1.091 -0.1874156 -0.04226017
v -2.003965 -0.07970792 -0.05088186
v -0.3583618 -0.2360719 0.009986877
v 0.3508684 -0.2015654 0.05270147
v -0.3582781 -0.2001483 0.05367756
v -1.086954 -0.2074144 0.01084948
v -1.082027 -0.1716041 0.05468082
v -2.005251 -0.1357202 -0.04147577
v -3.131953 0.003960192 -0.04967546
v -2.008384 -0.1554044 0.01155996
v -2.005437 -0.1195484 0.05548477
v -3.134244 -0.05196512 -0.04021025
v -3.937948 0.08588952 -0.04889202
v -3.124803 -0.07229865 0.01310301
v -3.109593 -0.03783917 0.05668163
v -3.94136 0.03000617 -0.03905725
v -4.642703 0.2051468 -0.04791975
v -4.646827 0.1480703 -0.03536463
v -3.955532 0.01298243 0.01413584
v -3.962064 0.04993415 0.05751991
v -4.654969 0.1330361 0.01761389
v -4.658987 0.1678475 0.05847836
v 0.3509017 -0.1456351 0.0436511
v 0.3508684 -0.2015654 0.05270147
v -0.3582781 -0.2001483 0.05367756
v -0.358252 -0.144212 0.0446105
v 0.3508232 -0.1253334 -0.009475231
v -1.082027 -0.1716041 0.05468082
v -0.3583162 -0.1239781 -0.008526325
v 0.3507458 -0.1615335 -0.05364227
v -0.3584005 -0.1601734 -0.05267477
v -1.086151 -0.1153678 0.04543924
v -2.005437 -0.1195484 0.05548477
v -1.089483 -0.09520334 -0.007656097
v -1.090338 -0.1313065 -0.05166864
v -2.005881 -0.0633654 0.04613829
v -3.109593 -0.03783917 0.05668163
v -2.006559 -0.0434013 -0.00687027
v -2.003965 -0.07970792 -0.05088186
v -3.124882 0.01947165 0.0476861
v -3.962064 0.04993415 0.05751991
v -3.13416 0.04033345 -0.005610466
v -3.131953 0.003960192 -0.04967546
v -3.95524 0.1044436 0.04872608
v -4.658987 0.1678475 0.05847836
v -4.654862 0.2213492 0.05222082
v -3.941204 0.1227015 -0.00447464
v -3.937948 0.08588952 -0.04889202
v -4.64672 0.2436143 -0.0008068085
v -4.642703 0.2051468 -0.04791975
v 0.3508232 -0.1253334 -0.009475231
v 0.3507458 -0.1615335 -0.05364227
v 1.228565 -0.1279699 -0.05466557
v 1.229205 -0.09173387 -0.01046562
v 0.3509017 -0.1456351 0.0436511
v 2.223376 -0.04935145 -0.05543518
v 1.225633 -0.1123031 0.04267883
v 0.3508684 -0.2015654 0.05270147
v 1.219283 -0.1685891 0.05168343
v 2.224728 -0.01318949 -0.01144934
v 3.329885 0.03977513 -0.05667067
v 2.227595 -0.03315693 0.04175472
v 2.227045 -0.08911788 0.05089331
v 3.332686 0.07609826 -0.01260614
v 4.038579 0.1058108 -0.05743647
v 3.323847 0.05519247 0.04086828
v 3.309225 -0.001465082 0.04966879
v 4.041118 0.1422101 -0.01333904
v 4.77823 0.1894831 -0.05843163
v 4.781968 0.2277357 -0.01124716
v 4.051534 0.1232035 0.04010391
v 4.056579 0.06840307 0.04885912
v 4.789335 0.2048339 0.04220581
v 4.792965 0.1515812 0.04787111
v 0.350778 -0.2374917 0.009002686
v 0.3508684 -0.2015654 0.05270147
v 1.219283 -0.1685891 0.05168343
v 1.225638 -0.2040953 0.008031845
v 0.350733 -0.2177289 -0.04412031
v 2.227045 -0.08911788 0.05089331
v 1.229117 -0.1841632 -0.04512072
v 0.3507458 -0.1615335 -0.05364227
v 1.228565 -0.1279699 -0.05466557
v 2.227376 -0.1251772 0.007110596
v 3.309225 -0.001465082 0.04966879
v 2.224604 -0.105368 -0.04611921
v 2.223376 -0.04935145 -0.05543518
v 3.323923 -0.03637403 0.006189823
v 4.056579 0.06840307 0.04885912
v 3.332756 -0.01615965 -0.04728556
v 3.329885 0.03977513 -0.05667067
v 4.051245 0.03163213 0.005415916
v 4.792965 0.1515812 0.04787111
v 4.789228 0.1172535 0.007539749
v 4.040783 0.04988748 -0.04802752
v 4.038579 0.1058108 -0.05743647
v 4.781861 0.1321775 -0.04596567
v 4.77823 0.1894831 -0.05843163

vn 0.005897522 0.3457031 -0.9384766
vn 0.01203156 -0.6401367 -0.7680664
vn -0.008079529 0.3449707 -0.9384766
vn -0.01445007 -0.6396484 -0.7685547
vn 0.01596069 0.3479004 -0.9375
vn 0.01998901 -0.9868164 0.1621094
vn -0.0322876 -0.6391602 -0.7685547
vn 0.02178955 0.3464355 -0.9379883
vn -0.02032471 -0.9863281 0.1629639
vn 0.008468628 -0.3591309 0.9331055
vn -0.006332397 -0.3579102 0.9335938
vn -0.04788208 -0.9848633 0.1674805
vn -0.01634216 -0.3557129 0.9345703
vn -0.0428772 -0.637207 -0.7695313
vn 0.02861023 0.3505859 -0.9360352
vn -0.06518555 -0.9848633 0.1617432
vn -0.02252197 -0.3549805 0.9345703
vn -0.05648804 -0.6357422 -0.7695313
vn 0.04193115 0.3395996 -0.9394531
vn -0.08465576 -0.9838867 0.1577148
vn -0.02888489 -0.3525391 0.9355469
vn -0.08618164 -0.6518555 -0.753418
vn 0.06359863 0.3898926 -0.918457
vn -0.1123657 -0.6469727 -0.7539063
vn -0.1300049 -0.9746094 0.1828613
vn -0.04818726 -0.3603516 0.9316406
vn -0.1629639 -0.9614258 0.2213135
vn -0.05032349 -0.3120117 0.9487305
vn -0.01171112 0.628418 0.777832
vn 0.008468628 -0.3591309 0.9331055
vn -0.006332397 -0.3579102 0.9335938
vn 0.01420593 0.6293945 0.7768555
vn -0.02030945 0.9863281 -0.1624756
vn -0.01634216 -0.3557129 0.9345703
vn 0.02055359 0.9863281 -0.1634521
vn -0.008079529 0.3449707 -0.9384766
vn 0.005897522 0.3457031 -0.9384766
vn 0.03140259 0.628418 0.7773438
vn -0.02252197 -0.3549805 0.9345703
vn 0.04827881 0.9853516 -0.1627197
vn 0.01596069 0.3479004 -0.9375
vn 0.04251099 0.6308594 0.7749023
vn -0.02888489 -0.3525391 0.9355469
vn 0.06536865 0.9838867 -0.1654053
vn 0.02178955 0.3464355 -0.9379883
vn 0.05541992 0.640625 0.765625
vn -0.04818726 -0.3603516 0.9316406
vn 0.08544922 0.9824219 -0.166748
vn 0.02861023 0.3505859 -0.9360352
vn 0.08569336 0.6142578 0.7841797
vn -0.05032349 -0.3120117 0.9487305
vn 0.1072388 0.6166992 0.7797852
vn 0.1298828 0.9794922 -0.1549072
vn 0.04193115 0.3395996 -0.9394531
vn 0.166626 0.980957 -0.09906006
vn 0.06359863 0.3898926 -0.918457
vn -0.02030945 0.9863281 -0.1624756
vn -0.008079529 0.3449707 -0.9384766
vn -0.02124023 0.3444824 -0.9384766
vn -0.05999756 0.9853516 -0.1608887
vn -0.01171112 0.628418 0.777832
vn -0.02885437 0.3503418 -0.9360352
vn -0.03631592 0.6254883 0.7792969
vn 0.008468628 -0.3591309 0.9331055
vn 0.02223206 -0.3596191 0.9326172
vn -0.07867432 0.9838867 -0.1616211
vn -0.03118896 0.3552246 -0.934082
vn -0.04983521 0.6333008 0.7724609
vn 0.0291748 -0.3540039 0.9345703
vn -0.0848999 0.9829102 -0.1638184
vn -0.03573608 0.3447266 -0.9379883
vn -0.05441284 0.6474609 0.7602539
vn 0.03091431 -0.3508301 0.9360352
vn -0.1019287 0.9824219 -0.1567383
vn -0.04266357 0.3774414 -0.925293
vn -0.1126099 0.987793 -0.1078491
vn -0.06500244 0.6235352 0.7788086
vn 0.03805542 -0.359375 0.9326172
vn -0.07037354 0.6137695 0.7861328
vn 0.03720093 -0.3293457 0.9433594
vn 0.01998901 -0.9868164 0.1621094
vn 0.008468628 -0.3591309 0.9331055
vn 0.02223206 -0.3596191 0.9326172
vn 0.05899048 -0.984375 0.1651611
vn 0.01203156 -0.6401367 -0.7680664
vn 0.0291748 -0.3540039 0.9345703
vn 0.03811646 -0.640625 -0.7666016
vn -0.008079529 0.3449707 -0.9384766
vn -0.02124023 0.3444824 -0.9384766
vn 0.07873535 -0.9833984 0.1634521
vn 0.03091431 -0.3508301 0.9360352
vn 0.05004883 -0.6357422 -0.7700195
vn -0.02885437 0.3503418 -0.9360352
vn 0.08465576 -0.984375 0.1544189
vn 0.03805542 -0.359375 0.9326172
vn 0.05374146 -0.6323242 -0.7729492
vn -0.03118896 0.3552246 -0.934082
vn 0.1018066 -0.9785156 0.1783447
vn 0.03720093 -0.3293457 0.9433594
vn 0.1106567 -0.9692383 0.2203369
vn 0.06652832 -0.6474609 -0.7592773
vn -0.03573608 0.3447266 -0.9379883
vn 0.07562256 -0.6591797 -0.7480469
vn -0.04266357 0.3774414 -0.925293

vt 0.7773438 0.4733887
vt 0.7773438 0.4731445
vt 0.7773438 0.4733887
vt 0.7773438 0.4733887
vt 0.7788086 0.4731445
vt 0.7773438 0.4731445
vt 0.7788086 0.4731445
vt 0.7807617 0.4724121
vt 0.7773438 0.4731445
vt 0.7773438 0.4731445
vt 0.7773438 0.4731445
vt 0.7788086 0.4731445
vt 0.7788086 0.4729004
vt 0.7807617 0.4724121
vt 0.7836914 0.470459
vt 0.7807617 0.4724121
vt 0.7807617 0.472168
vt 0.7836914 0.470459
vt 0.7939453 0.4621582
vt 0.7836914 0.470459
vt 0.7836914 0.470459
vt 0.7939453 0.4621582
vt 0.8056641 0.4553223
vt 0.8056641 0.4553223
vt 0.7944336 0.4619141
vt 0.7944336 0.4616699
vt 0.8056641 0.4553223
vt 0.8056641 0.4550781
vt 0.7773438 0.4731445
vt 0.7773438 0.4731445
vt 0.7773438 0.4731445
vt 0.7773438 0.4731445
vt 0.7773438 0.4731445
vt 0.7788086 0.4729004
vt 0.7773438 0.4733887
vt 0.7773438 0.4733887
vt 0.7773438 0.4733887
vt 0.7788086 0.4731445
vt 0.7807617 0.472168
vt 0.7788086 0.4731445
vt 0.7788086 0.4731445
vt 0.7807617 0.4724121
vt 0.7836914 0.470459
vt 0.7807617 0.4724121
vt 0.7807617 0.4724121
vt 0.7836914 0.470459
vt 0.7944336 0.4616699
vt 0.7836914 0.470459
vt 0.7836914 0.470459
vt 0.7944336 0.4619141
vt 0.8056641 0.4550781
vt 0.8056641 0.4553223
vt 0.7939453 0.4621582
vt 0.7939453 0.4621582
vt 0.8056641 0.4553223
vt 0.8056641 0.4553223
vt 0.7773438 0.4731445
vt 0.7773438 0.4733887
vt 0.7788086 0.4729004
vt 0.7788086 0.4729004
vt 0.7773438 0.4731445
vt 0.7807617 0.472168
vt 0.7788086 0.4729004
vt 0.7773438 0.4731445
vt 0.7788086 0.4726563
vt 0.7807617 0.472168
vt 0.7841797 0.4702148
vt 0.7807617 0.4719238
vt 0.7807617 0.4719238
vt 0.7841797 0.4702148
vt 0.7939453 0.4619141
vt 0.7841797 0.4699707
vt 0.7841797 0.4699707
vt 0.7939453 0.4619141
vt 0.8061523 0.4550781
vt 0.8061523 0.4550781
vt 0.7944336 0.4616699
vt 0.7944336 0.4614258
vt 0.8061523 0.454834
vt 0.8061523 0.454834
vt 0.7773438 0.4731445
vt 0.7773438 0.4731445
vt 0.7788086 0.4726563
vt 0.7788086 0.4729004
vt 0.7773438 0.4731445
vt 0.7807617 0.4719238
vt 0.7788086 0.4729004
vt 0.7773438 0.4733887
vt 0.7788086 0.4729004
vt 0.7807617 0.4719238
vt 0.7841797 0.4699707
vt 0.7807617 0.472168
vt 0.7807617 0.472168
vt 0.7841797 0.4699707
vt 0.7944336 0.4614258
vt 0.7841797 0.4702148
vt 0.7841797 0.4702148
vt 0.7944336 0.4616699
vt 0.8061523 0.454834
vt 0.8061523 0.454834
vt 0.7939453 0.4619141
vt 0.7939453 0.4619141
vt 0.8061523 0.4550781
vt 0.8061523 0.4550781

g BezierCurve.021_1402_40
usemtl BezierCurve.021_1402_40
usemap BezierCurve.021_1402_40
f 1/1/1 3/3/3 2/2/2
f 1/1/1 2/2/2 4/4/4
f 5/5/5 1/1/1 4/4/4
f 6/6/6 4/4/4 2/2/2
f 5/5/5 4/4/4 7/7/7
f 8/8/8 5/5/5 7/7/7
f 6/6/6 9/9/9 4/4/4
f 7/7/7 4/4/4 9/9/9
f 10/10/10 9/9/9 6/6/6
f 10/10/10 11/11/11 9/9/9
f 12/12/12 9/9/9 11/11/11
f 7/7/7 9/9/9 12/12/12
f 12/12/12 11/11/11 13/13/13
f 8/8/8 7/7/7 14/14/14
f 12/12/12 14/14/14 7/7/7
f 15/15/15 8/8/8 14/14/14
f 13/13/13 16/16/16 12/12/12
f 12/12/12 16/16/16 14/14/14
f 13/13/13 17/17/17 16/16/16
f 15/15/15 14/14/14 18/18/18
f 18/18/18 14/14/14 16/16/16
f 19/19/19 15/15/15 18/18/18
f 20/20/20 16/16/16 17/17/17
f 18/18/18 16/16/16 20/20/20
f 20/20/20 17/17/17 21/21/21
f 19/19/19 18/18/18 22/22/22
f 20/20/20 22/22/22 18/18/18
f 23/23/23 19/19/19 22/22/22
f 23/23/23 22/22/22 24/24/24
f 21/21/21 25/25/25 20/20/20
f 20/20/20 25/25/25 22/22/22
f 24/24/24 22/22/22 25/25/25
f 21/21/21 26/26/26 25/25/25
f 24/24/24 25/25/25 27/27/27
f 27/27/27 25/25/25 26/26/26
f 27/27/27 26/26/26 28/28/28
f 29/29/29 31/31/31 30/30/30
f 29/29/29 32/32/32 31/31/31
f 33/33/33 32/32/32 29/29/29
f 34/34/34 31/31/31 32/32/32
f 33/33/33 35/35/35 32/32/32
f 35/35/35 33/33/33 36/36/36
f 35/35/35 36/36/36 37/37/37
f 34/34/34 32/32/32 38/38/38
f 38/38/38 32/32/32 35/35/35
f 38/38/38 39/39/39 34/34/34
f 40/40/40 35/35/35 37/37/37
f 38/38/38 35/35/35 40/40/40
f 40/40/40 37/37/37 41/41/41
f 38/38/38 42/42/42 39/39/39
f 40/40/40 42/42/42 38/38/38
f 43/43/43 39/39/39 42/42/42
f 44/44/44 40/40/40 41/41/41
f 40/40/40 44/44/44 42/42/42
f 44/44/44 41/41/41 45/45/45
f 43/43/43 42/42/42 46/46/46
f 46/46/46 42/42/42 44/44/44
f 46/46/46 47/47/47 43/43/43
f 48/48/48 44/44/44 45/45/45
f 46/46/46 44/44/44 48/48/48
f 48/48/48 45/45/45 49/49/49
f 46/46/46 50/50/50 47/47/47
f 48/48/48 50/50/50 46/46/46
f 51/51/51 47/47/47 50/50/50
f 51/51/51 50/50/50 52/52/52
f 53/53/53 48/48/48 49/49/49
f 48/48/48 53/53/53 50/50/50
f 52/52/52 50/50/50 53/53/53
f 53/53/53 49/49/49 54/54/54
f 52/52/52 53/53/53 55/55/55
f 55/55/55 53/53/53 54/54/54
f 55/55/55 54/54/54 56/56/56
f 57/57/57 59/59/59 58/58/58
f 57/57/57 60/60/60 59/59/59
f 61/61/61 60/60/60 57/57/57
f 60/60/60 62/62/62 59/59/59
f 61/61/61 63/63/63 60/60/60
f 64/64/64 63/63/63 61/61/61
f 64/64/64 65/65/65 63/63/63
f 60/60/60 66/66/66 62/62/62
f 66/66/66 60/60/60 63/63/63
f 66/66/66 67/67/67 62/62/62
f 68/68/68 63/63/63 65/65/65
f 66/66/66 63/63/63 68/68/68
f 68/68/68 65/65/65 69/69/69
f 66/66/66 70/70/70 67/67/67
f 68/68/68 70/70/70 66/66/66
f 70/70/70 71/71/71 67/67/67
f 69/69/69 72/72/72 68/68/68
f 68/68/68 72/72/72 70/70/70
f 69/69/69 73/73/73 72/72/72
f 70/70/70 74/74/74 71/71/71
f 74/74/74 70/70/70 72/72/72
f 74/74/74 75/75/75 71/71/71
f 74/74/74 76/76/76 75/75/75
f 77/77/77 72/72/72 73/73/73
f 74/74/74 72/72/72 77/77/77
f 77/77/77 76/76/76 74/74/74
f 77/77/77 73/73/73 78/78/78
f 77/77/77 79/79/79 76/76/76
f 78/78/78 79/79/79 77/77/77
f 78/78/78 80/80/80 79/79/79
f 81/81/81 83/83/83 82/82/82
f 81/81/81 84/84/84 83/83/83
f 85/85/85 84/84/84 81/81/81
f 86/86/86 83/83/83 84/84/84
f 85/85/85 87/87/87 84/84/84
f 88/88/88 87/87/87 85/85/85
f 88/88/88 89/89/89 87/87/87
f 86/86/86 84/84/84 90/90/90
f 90/90/90 84/84/84 87/87/87
f 90/90/90 91/91/91 86/86/86
f 89/89/89 92/92/92 87/87/87
f 90/90/90 87/87/87 92/92/92
f 89/89/89 93/93/93 92/92/92
f 90/90/90 94/94/94 91/91/91
f 92/92/92 94/94/94 90/90/90
f 95/95/95 91/91/91 94/94/94
f 93/93/93 96/96/96 92/92/92
f 92/92/92 96/96/96 94/94/94
f 93/93/93 97/97/97 96/96/96
f 95/95/95 94/94/94 98/98/98
f 98/98/98 94/94/94 96/96/96
f 98/98/98 99/99/99 95/95/95
f 98/98/98 100/100/100 99/99/99
f 97/97/97 101/101/101 96/96/96
f 98/98/98 96/96/96 101/101/101
f 101/101/101 100/100/100 98/98/98
f 97/97/97 102/102/102 101/101/101
f 101/101/101 103/103/103 100/100/100
f 102/102/102 103/103/103 101/101/101
f 102/102/102 104/104/104 103/103/103
