#Clouds_1397_0.obj

v 100.1732 -78.92068 -137.8765
v 52.66415 -78.92068 -162.0836
v 52.66415 78.92068 -162.0836
v 100.1732 78.92068 -137.8765
v 137.8766 -78.92068 -100.1732
v 137.8766 78.92068 -100.1732
v 162.0836 -78.92068 -52.66415
v 162.0836 78.92068 -52.66415
v 170.4247 -78.92068 7.237489E-06
v 170.4247 78.92068 7.237489E-06
v 52.66415 -78.92068 -162.0836
v 2.470493E-06 -78.92068 -170.4248
v 2.470493E-06 78.92068 -170.4248
v 52.66415 78.92068 -162.0836
v 2.470493E-06 -78.92068 -170.4248
v -52.66414 78.92068 -162.0836
v 2.470493E-06 78.92068 -170.4248
v -52.66414 -78.92068 -162.0836
v -100.1731 78.92068 -137.8765
v -100.1731 -78.92068 -137.8765
v -137.8765 78.92068 -100.1731
v -137.8765 -78.92068 -100.1731
v -137.8765 -78.92068 -100.1731
v -162.0835 78.92068 -52.66415
v -137.8765 78.92068 -100.1731
v -162.0835 -78.92068 -52.66415
v -170.4247 78.92068 -1.244216E-05
v -170.4247 -78.92068 -1.244216E-05
v -162.0835 78.92068 52.66413
v -162.0835 -78.92068 52.66413
v -137.8765 78.92068 100.1731
v -137.8765 -78.92068 100.1731
v -137.8765 -78.92068 100.1731
v -100.1731 78.92068 137.8765
v -137.8765 78.92068 100.1731
v -100.1731 -78.92068 137.8765
v -52.66415 78.92068 162.0835
v -52.66415 -78.92068 162.0835
v -6.895191E-06 78.92068 170.4247
v -6.895191E-06 -78.92068 170.4247
v 52.66412 78.92068 162.0835
v 52.66412 -78.92068 162.0835
v 52.66412 -78.92068 162.0835
v 100.1731 78.92068 137.8765
v 52.66412 78.92068 162.0835
v 100.1731 -78.92068 137.8765
v 137.8764 78.92068 100.1731
v 137.8764 -78.92068 100.1731
v 162.0835 78.92068 52.66412
v 162.0835 -78.92068 52.66412
v 170.4247 78.92068 7.237489E-06
v 170.4247 -78.92068 7.237489E-06

vn -0.9897461 0 0.1439209
vn -0.8964844 0 0.442627
vn -0.8964844 0 0.442627
vn -0.9897461 0 0.1439209
vn -0.9858398 0 -0.1689453
vn -0.9858398 0 -0.1689453
vn -0.8852539 0 -0.465332
vn -0.8852539 0 -0.465332
vn -0.6982422 0 -0.7158203
vn -0.6982422 0 -0.7158203
vn -0.8964844 0 0.442627
vn -0.7158203 0 0.6982422
vn -0.7158203 0 0.6982422
vn -0.8964844 0 0.442627
vn -0.7158203 0 0.6982422
vn -0.465332 0 0.8852539
vn -0.7158203 0 0.6982422
vn -0.465332 0 0.8852539
vn -0.1689453 0 0.9858398
vn -0.1689453 0 0.9858398
vn 0.1439209 0 0.9897461
vn 0.1439209 0 0.9897461
vn 0.1439209 0 0.9897461
vn 0.442627 0 0.8964844
vn 0.1439209 0 0.9897461
vn 0.442627 0 0.8964844
vn 0.6982422 0 0.7158203
vn 0.6982422 0 0.7158203
vn 0.8852539 0 0.465332
vn 0.8852539 0 0.465332
vn 0.9858398 0 0.1689453
vn 0.9858398 0 0.1689453
vn 0.9858398 0 0.1689453
vn 0.9897461 0 -0.1439209
vn 0.9858398 0 0.1689453
vn 0.9897461 0 -0.1439209
vn 0.8964844 0 -0.442627
vn 0.8964844 0 -0.442627
vn 0.7158203 0 -0.6982422
vn 0.7158203 0 -0.6982422
vn 0.465332 0 -0.8852539
vn 0.465332 0 -0.8852539
vn 0.465332 0 -0.8852539
vn 0.1689453 0 -0.9858398
vn 0.465332 0 -0.8852539
vn 0.1689453 0 -0.9858398
vn -0.1439209 0 -0.9897461
vn -0.1439209 0 -0.9897461
vn -0.442627 0 -0.8964844
vn -0.442627 0 -0.8964844
vn -0.6982422 0 -0.7158203
vn -0.6982422 0 -0.7158203

vt 0.8999023 0
vt 0.9501953 0
vt 0.9501953 1
vt 0.8999023 1
vt 0.8500977 0
vt 0.8500977 1
vt 0.7998047 0
vt 0.7998047 1
vt 0.75 0
vt 0.75 1
vt 0.9501953 0
vt 1 0
vt 1 1
vt 0.9501953 1
vt 1.591444E-05 0
vt 0.05001831 1
vt 1.591444E-05 1
vt 0.05001831 0
vt 0.1000366 1
vt 0.1000366 0
vt 0.1500244 1
vt 0.1500244 0
vt 0.1500244 0
vt 0.2000732 1
vt 0.1500244 1
vt 0.2000732 0
vt 0.25 1
vt 0.25 0
vt 0.3000488 1
vt 0.3000488 0
vt 0.3500977 1
vt 0.3500977 0
vt 0.3500977 0
vt 0.3999023 1
vt 0.3500977 1
vt 0.3999023 0
vt 0.4499512 1
vt 0.4499512 0
vt 0.5 1
vt 0.5 0
vt 0.5498047 1
vt 0.5498047 0
vt 0.5498047 0
vt 0.6000977 1
vt 0.5498047 1
vt 0.6000977 0
vt 0.6499023 1
vt 0.6499023 0
vt 0.7001953 1
vt 0.7001953 0
vt 0.75 1
vt 0.75 0

g Clouds_1397_0
usemtl Clouds_1397_0
usemap Clouds_1397_0
f 1/1/1 3/3/3 2/2/2
f 1/1/1 4/4/4 3/3/3
f 5/5/5 4/4/4 1/1/1
f 5/5/5 6/6/6 4/4/4
f 7/7/7 6/6/6 5/5/5
f 7/7/7 8/8/8 6/6/6
f 9/9/9 8/8/8 7/7/7
f 9/9/9 10/10/10 8/8/8
f 11/11/11 13/13/13 12/12/12
f 11/11/11 14/14/14 13/13/13
f 15/15/15 17/17/17 16/16/16
f 15/15/15 16/16/16 18/18/18
f 18/18/18 16/16/16 19/19/19
f 18/18/18 19/19/19 20/20/20
f 20/20/20 19/19/19 21/21/21
f 20/20/20 21/21/21 22/22/22
f 23/23/23 25/25/25 24/24/24
f 23/23/23 24/24/24 26/26/26
f 26/26/26 24/24/24 27/27/27
f 26/26/26 27/27/27 28/28/28
f 28/28/28 27/27/27 29/29/29
f 28/28/28 29/29/29 30/30/30
f 30/30/30 29/29/29 31/31/31
f 30/30/30 31/31/31 32/32/32
f 33/33/33 35/35/35 34/34/34
f 33/33/33 34/34/34 36/36/36
f 36/36/36 34/34/34 37/37/37
f 36/36/36 37/37/37 38/38/38
f 38/38/38 37/37/37 39/39/39
f 38/38/38 39/39/39 40/40/40
f 40/40/40 39/39/39 41/41/41
f 40/40/40 41/41/41 42/42/42
f 43/43/43 45/45/45 44/44/44
f 43/43/43 44/44/44 46/46/46
f 46/46/46 44/44/44 47/47/47
f 46/46/46 47/47/47 48/48/48
f 48/48/48 47/47/47 49/49/49
f 48/48/48 49/49/49 50/50/50
f 50/50/50 49/49/49 51/51/51
f 50/50/50 51/51/51 52/52/52
