#PikPng.com_tree-clipart-png_444362.001_1804_3.obj

v 0.3917308 -2.541965 -0.1753161
v 1.531249 -1.686148 -0.6853117
v 1.107849 -0.9874825 -0.4958187
v 0.4962726 1.034068 -0.2221072
v 1.43716 -0.7297774 -0.6432034
v 1.996462 0.5415661 -0.8935222
v 2.027827 -0.7584108 -0.9075581
v 2.65253 0.6102874 -1.187148
v 2.65253 -0.2850237 -1.187147
v 0.219234 1.245958 -0.09811814
v -0.2199364 -2.528221 0.09843796
v -0.3766606 1.86445 0.1685767
v 1.745559 2.230964 -0.7812313
v -0.4132502 0.7477291 0.1849535
v -0.8523276 -2.247372 0.3814674
v -1.113687 0.5358384 0.4984367
v -0.967326 -1.531526 0.4329341
v -1.594584 -1.268095 0.7136652
v -1.777535 1.022614 0.7955433
v -2.652529 0.2094118 1.187151
v -2.652529 0.9424384 1.18715
v -1.56845 2.541968 0.7019655
v 1.74556 2.541969 -0.7812324
v -1.479588 2.196602 0.6621954

vn 0.4084473 -5.960464E-08 -0.9125977
vn 0.4084473 -5.960464E-08 -0.9125977
vn 0.4084473 -5.960464E-08 -0.9125977
vn 0.4084473 -5.960464E-08 -0.9125977
vn 0.4084473 -5.960464E-08 -0.9125977
vn 0.4084473 -5.960464E-08 -0.9125977
vn 0.4084473 -5.960464E-08 -0.9125977
vn 0.4084473 -5.960464E-08 -0.9125977
vn 0.4084473 -5.960464E-08 -0.9125977
vn 0.4084473 -5.960464E-08 -0.9125977
vn 0.4084473 -5.960464E-08 -0.9125977
vn 0.4084473 -5.960464E-08 -0.9125977
vn 0.4084473 -5.960464E-08 -0.9125977
vn 0.4084473 -5.960464E-08 -0.9125977
vn 0.4084473 -5.960464E-08 -0.9125977
vn 0.4084473 -5.960464E-08 -0.9125977
vn 0.4084473 -5.960464E-08 -0.9125977
vn 0.4084473 -5.960464E-08 -0.9125977
vn 0.4084473 -5.960464E-08 -0.9125977
vn 0.4084473 -5.960464E-08 -0.9125977
vn 0.4084473 -5.960464E-08 -0.9125977
vn 0.4084473 -5.960464E-08 -0.9125977
vn 0.4084473 -5.960464E-08 -0.9125977
vn 0.4084473 -5.960464E-08 -0.9125977

vt 0.4262695 1
vt 0.2113037 0.831543
vt 0.2912598 0.6943359
vt 0.4064941 0.2966309
vt 0.229126 0.6435547
vt 0.1236572 0.3935547
vt 0.1177368 0.6494141
vt 0 0.3798828
vt 0 0.5561523
vt 0.4587402 0.2548828
vt 0.5415039 1
vt 0.5708008 0.1333008
vt 0.1710205 0.06118774
vt 0.578125 0.3530273
vt 0.6606445 0.9418945
vt 0.7099609 0.3945313
vt 0.6821289 0.8012695
vt 0.8007813 0.7495117
vt 0.8349609 0.2988281
vt 1 0.4587402
vt 1 0.3146973
vt 0.7954102 0
vt 0.1710205 0
vt 0.7788086 0.06793213

g PikPng.com_tree-clipart-png_444362.001_1804_3
usemtl PikPng.com_tree-clipart-png_444362.001_1804_3
usemap PikPng.com_tree-clipart-png_444362.001_1804_3
f 1/1/1 3/3/3 2/2/2
f 3/3/3 1/1/1 4/4/4
f 4/4/4 5/5/5 3/3/3
f 6/6/6 5/5/5 4/4/4
f 6/6/6 7/7/7 5/5/5
f 8/8/8 7/7/7 6/6/6
f 7/7/7 8/8/8 9/9/9
f 4/4/4 1/1/1 10/10/10
f 10/10/10 1/1/1 11/11/11
f 12/12/12 10/10/10 11/11/11
f 12/12/12 13/13/13 10/10/10
f 11/11/11 14/14/14 12/12/12
f 14/14/14 11/11/11 15/15/15
f 14/14/14 15/15/15 16/16/16
f 16/16/16 15/15/15 17/17/17
f 16/16/16 17/17/17 18/18/18
f 16/16/16 18/18/18 19/19/19
f 19/19/19 18/18/18 20/20/20
f 19/19/19 20/20/20 21/21/21
f 22/22/22 13/13/13 12/12/12
f 13/13/13 22/22/22 23/23/23
f 22/22/22 12/12/12 24/24/24
