#PikPng.com_tree-clipart-png_444362_(1)_1750_1.obj

v 0.4291722 -2.541965 3.726355E-06
v 1.67761 -1.686149 3.592528E-06
v 1.21374 -0.9874828 3.185293E-06
v 0.5437075 1.034068 1.50849E-06
v 1.574528 -0.7297776 3.184018E-06
v 2.187291 0.5415661 2.742557E-06
v 2.221653 -0.758411 3.098454E-06
v 2.906068 0.6102875 2.657467E-06
v 2.906068 -0.2850238 3.386871E-06
v 0.2401886 1.245958 1.507043E-06
v -0.2409608 -2.528222 3.461195E-06
v -0.4126636 1.86445 1.232781E-07
v 1.912407 2.230964 8.107405E-07
v -0.452751 0.7477288 7.899982E-07
v -0.9337985 -2.247373 3.377212E-06
v -1.220139 0.5358379 1.311571E-06
v -1.059788 -1.531527 2.024638E-06
v -1.747002 -1.268096 1.649554E-06
v -1.947439 1.022613 5.378505E-07
v -2.906068 0.2094113 5.027083E-07
v -2.906069 0.9424378 -1.111343E-07
v -1.718369 2.541967 -3.4964E-07
v 1.912408 2.541969 6.04552E-07
v -1.621013 2.196602 -4.365839E-07

vn 0.05911255 -7.152557E-07 -0.9980469
vn 0.05911255 -7.152557E-07 -0.9980469
vn 0.05911255 -7.152557E-07 -0.9980469
vn 0.05911255 -7.152557E-07 -0.9980469
vn 0.05911255 -7.152557E-07 -0.9980469
vn 0.05911255 -7.152557E-07 -0.9980469
vn 0.05911255 -7.152557E-07 -0.9980469
vn 0.05911255 -7.152557E-07 -0.9980469
vn 0.05911255 -7.152557E-07 -0.9980469
vn 0.05911255 -7.152557E-07 -0.9980469
vn 0.05911255 -7.152557E-07 -0.9980469
vn 0.05911255 -7.152557E-07 -0.9980469
vn 0.05911255 -7.152557E-07 -0.9980469
vn 0.05911255 -7.152557E-07 -0.9980469
vn 0.05911255 -7.152557E-07 -0.9980469
vn 0.05911255 -7.152557E-07 -0.9980469
vn 0.05911255 -7.152557E-07 -0.9980469
vn 0.05911255 -7.152557E-07 -0.9980469
vn 0.05911255 -7.152557E-07 -0.9980469
vn 0.05911255 -7.152557E-07 -0.9980469
vn 0.05911255 -7.152557E-07 -0.9980469
vn 0.05911255 -7.152557E-07 -0.9980469
vn 0.05911255 -7.152557E-07 -0.9980469
vn 0.05911255 -7.152557E-07 -0.9980469

vt 0.4262695 1
vt 0.2113037 0.831543
vt 0.2912598 0.6943359
vt 0.4064941 0.2966309
vt 0.229126 0.6435547
vt 0.1236572 0.3935547
vt 0.1177368 0.6494141
vt 0 0.3798828
vt 0 0.5561523
vt 0.4587402 0.2548828
vt 0.5415039 1
vt 0.5708008 0.1333008
vt 0.1710205 0.06118774
vt 0.578125 0.3530273
vt 0.6606445 0.9418945
vt 0.7099609 0.3945313
vt 0.6821289 0.8012695
vt 0.8007813 0.7495117
vt 0.8349609 0.2988281
vt 1 0.4587402
vt 1 0.3146973
vt 0.7954102 0
vt 0.1710205 0
vt 0.7788086 0.06793213

g PikPng.com_tree-clipart-png_444362_(1)_1750_1
usemtl PikPng.com_tree-clipart-png_444362_(1)_1750_1
usemap PikPng.com_tree-clipart-png_444362_(1)_1750_1
f 1/1/1 3/3/3 2/2/2
f 3/3/3 1/1/1 4/4/4
f 4/4/4 5/5/5 3/3/3
f 6/6/6 5/5/5 4/4/4
f 6/6/6 7/7/7 5/5/5
f 8/8/8 7/7/7 6/6/6
f 7/7/7 8/8/8 9/9/9
f 4/4/4 1/1/1 10/10/10
f 10/10/10 1/1/1 11/11/11
f 12/12/12 10/10/10 11/11/11
f 12/12/12 13/13/13 10/10/10
f 11/11/11 14/14/14 12/12/12
f 14/14/14 11/11/11 15/15/15
f 14/14/14 15/15/15 16/16/16
f 16/16/16 15/15/15 17/17/17
f 16/16/16 17/17/17 18/18/18
f 16/16/16 18/18/18 19/19/19
f 19/19/19 18/18/18 20/20/20
f 19/19/19 20/20/20 21/21/21
f 22/22/22 13/13/13 12/12/12
f 13/13/13 22/22/22 23/23/23
f 22/22/22 12/12/12 24/24/24
